<mxfile host="app.diagrams.net" modified="2023-09-20T23:12:37.114Z" agent="Mozilla/5.0 (Windows NT 10.0; Win64; x64) AppleWebKit/537.36 (KHTML, like Gecko) Chrome/116.0.0.0 Safari/537.36" version="21.6.9" etag="CTiNjqfe4YW12P_Cn_ME" type="github">
  <diagram name="PÃ¡gina-1" id="1oKJIiJTpKugDBbbC6k7">
    <mxGraphModel>
      <root>
        <mxCell id="0" />
        <mxCell id="1" parent="0" />
      </root>
    </mxGraphModel>
  </diagram>
</mxfile>
